<svg xmlns="http://www.w3.org/2000/svg" version="1.1" viewBox="-5.0 -10.0 110.0 135.0">
 <path d="m83.422 56.504-0.47266-2.293h-3.1992l-0.49609 2.3789c-0.085937 0.42188-0.39844 0.73828-0.78906 0.84375-0.46484 0.125-0.90625 0.27344-1.3164 0.45312-0.41016 0.16797-0.83203 0.37891-1.2422 0.60938-0.37891 0.22266-0.84375 0.19141-1.1797-0.050782l-2.0117-1.3164-2.2617 2.2617 1.3359 2.0312c0.24219 0.35938 0.23047 0.80859 0.03125 1.168-0.23047 0.41016-0.44141 0.82031-0.60937 1.2305-0.16797 0.41016-0.31641 0.85156-0.44141 1.3164-0.125 0.45312-0.50391 0.75781-0.9375 0.80859l-2.293 0.47266v3.1992l2.3789 0.49609c0.42188 0.085938 0.73828 0.39844 0.84375 0.78906 0.125 0.46484 0.27344 0.90625 0.44141 1.3047 0.17969 0.42188 0.37891 0.84375 0.60938 1.2422 0.22266 0.37891 0.19141 0.84375-0.050781 1.1797l-1.3164 2.0117 2.2617 2.2617 2.0312-1.3359c0.35938-0.24219 0.80859-0.23047 1.168-0.03125 0.41016 0.23047 0.82031 0.44141 1.2305 0.60938 0.41016 0.16797 0.85156 0.31641 1.3164 0.44141 0.45312 0.125 0.75781 0.50391 0.80859 0.9375l0.47266 2.293h3.1992l0.49609-2.3789c0.085937-0.42188 0.39844-0.73828 0.78906-0.84375 0.46484-0.125 0.90625-0.27344 1.3047-0.45312 0.42187-0.17969 0.84375-0.37891 1.2422-0.60938 0.37891-0.22266 0.84375-0.19141 1.1797 0.050781l2.0117 1.3164 2.2617-2.2617-1.3359-2.0312c-0.24219-0.35938-0.23047-0.80859-0.03125-1.168 0.23047-0.41016 0.44141-0.82031 0.60938-1.2305 0.16797-0.41016 0.31641-0.85156 0.44141-1.3164 0.125-0.45312 0.50391-0.75781 0.9375-0.80859l2.293-0.47266v-3.1992l-2.3789-0.49609c-0.42188-0.085937-0.73828-0.39844-0.84375-0.78906-0.125-0.46484-0.27344-0.90625-0.44141-1.3164s-0.37891-0.83203-0.60938-1.2422c-0.22266-0.37891-0.19141-0.84375 0.050781-1.1797l1.3164-2.0117-2.2617-2.2617-2.0312 1.3359c-0.35938 0.24219-0.80859 0.23047-1.168 0.03125-0.41016-0.23047-0.82031-0.44141-1.2305-0.60938-0.41016-0.16797-0.85156-0.31641-1.3164-0.44141-0.45312-0.125-0.75781-0.50391-0.80859-0.9375zm-27.359-34.602c-0.82031 0-1.5586 0.33594-2.0938 0.86328s-0.86328 1.2734-0.86328 2.0938v20.715c0 0.82031 0.33594 1.5586 0.86328 2.0938 0.52734 0.53516 1.2734 0.86328 2.0938 0.86328h4.2734l0.16797 5c0 0.22266 0.0625 0.45312 0.19922 0.64062 0.35938 0.49609 1.043 0.60938 1.5469 0.26172l8.3047-5.9062h9.6836v3.4531h-1.0938c-0.34766 0-0.67188 0.125-0.92578 0.33594-0.25391 0.21094-0.44141 0.50391-0.51562 0.84375l-0.48438 2.3281c-0.30469 0.10547-0.60938 0.21094-0.91406 0.33594-0.30469 0.125-0.60156 0.26172-0.89453 0.41016l-1.9883-1.3047c-0.29297-0.19141-0.63281-0.26172-0.95703-0.23047-0.32812 0.03125-0.64062 0.17969-0.89453 0.42188l-3.1172 3.1172c-0.24219 0.24219-0.39062 0.55859-0.42188 0.89453-0.03125 0.32813 0.042969 0.66406 0.23047 0.95703l1.3047 1.9883c-0.14844 0.28516-0.28516 0.57812-0.41016 0.89453-0.125 0.30469-0.24219 0.60938-0.33594 0.91406l-2.3281 0.48438c-0.34766 0.074218-0.64063 0.25391-0.84375 0.51562-0.21094 0.26172-0.33594 0.57812-0.33594 0.92578v1.0938l-56.535 0.007812v-47.523h71.465v2.5156h-24.18zm26.398 0v-2.707c0-0.55859-0.23047-1.0742-0.60156-1.4414-0.36719-0.36719-0.875-0.60156-1.4414-0.60156l-71.828 0.003906c-0.55859 0-1.0742 0.23047-1.4414 0.60156-0.36719 0.36719-0.60156 0.875-0.60156 1.4414v47.895c0 0.55859 0.23047 1.0742 0.60156 1.4414 0.36719 0.36719 0.875 0.60156 1.4414 0.60156h56.738v1.0938c0 0.22266 0.050781 0.42188 0.13672 0.60938l-59.875 0.003906c-0.19922 0-0.39062-0.085938-0.52734-0.22266-0.13672-0.13672-0.22266-0.31641-0.22266-0.52734l0.003906-53.895c0-0.19922 0.085938-0.39062 0.22266-0.52734 0.13672-0.13672 0.31641-0.22266 0.52734-0.22266h77.832c0.19922 0 0.39062 0.085937 0.52734 0.22266s0.22266 0.31641 0.22266 0.52734v5.707h-1.707zm3.9258 0h4.8516c0.80859 0 1.5586 0.33594 2.0938 0.86328 0.53516 0.52734 0.86328 1.2734 0.86328 2.0938v20.715c0 0.82031-0.33594 1.5586-0.86328 2.0938-0.52734 0.53516-1.2734 0.86328-2.0938 0.86328h-4.8516v7.293c0.30469 0.125 0.60156 0.26172 0.89453 0.41016l1.9883-1.3047c0.29297-0.19141 0.63281-0.26172 0.95703-0.23047 0.32813 0.03125 0.64063 0.17969 0.89453 0.42188l3.1172 3.1172c0.24219 0.24219 0.39062 0.55859 0.42188 0.89453 0.03125 0.32813-0.042968 0.66406-0.23047 0.95703l-1.3047 1.9883c0.14844 0.28516 0.28516 0.57812 0.41016 0.89453 0.125 0.30469 0.24219 0.60938 0.33594 0.91406l2.3281 0.48438c0.34766 0.074218 0.64062 0.25391 0.84375 0.51562 0.21094 0.26172 0.33594 0.57812 0.33594 0.92578v4.4102c0 0.34766-0.125 0.67188-0.33594 0.92578-0.21094 0.25391-0.50391 0.44141-0.84375 0.51562l-2.3281 0.48438c-0.10547 0.30469-0.21094 0.60937-0.33594 0.91406s-0.26172 0.60156-0.41016 0.89453l1.3047 1.9883c0.19141 0.29297 0.26172 0.63281 0.23047 0.95703-0.03125 0.32812-0.17969 0.64062-0.42188 0.89453l-3.1172 3.1172c-0.24219 0.24219-0.55859 0.39063-0.89453 0.42188-0.32812 0.03125-0.66406-0.042969-0.95703-0.23047l-1.9883-1.3047c-0.28516 0.14844-0.57812 0.28516-0.88281 0.41016-0.30469 0.125-0.60938 0.24219-0.91406 0.33594l-0.48438 2.3281c-0.074219 0.34766-0.25391 0.64062-0.51562 0.84375-0.26172 0.21094-0.57812 0.33594-0.92578 0.33594h-4.4102c-0.34766 0-0.67188-0.125-0.92578-0.33594s-0.44141-0.50391-0.51562-0.84375l-0.48438-2.3281c-0.30469-0.10547-0.60938-0.21094-0.91406-0.34766-0.30469-0.125-0.60156-0.26172-0.89453-0.41016l-1.9883 1.3047c-0.29297 0.19141-0.63281 0.26172-0.95703 0.23047-0.32812-0.03125-0.64062-0.17969-0.89453-0.42188l-3.1172-3.1172c-0.24219-0.24219-0.39062-0.55859-0.42188-0.89453-0.03125-0.32812 0.042969-0.66406 0.23047-0.95703l1.3047-1.9883c-0.14844-0.28516-0.28516-0.58984-0.41016-0.88281h-13.465l0.28516 4.3164h3.043c1.293 0 2.4648 0.52734 3.3164 1.3789 0.85156 0.85156 1.3789 2.0195 1.3789 3.3164v3.5898c0 0.60938-0.49609 1.1055-1.1055 1.1055l-36.215 0.007813c-0.60938 0-1.1055-0.49609-1.1055-1.1055v-3.5898c0-1.293 0.52734-2.4648 1.3789-3.3164s2.0195-1.3789 3.3164-1.3789h3.043l0.28516-4.3164-27.727 0.003907c-0.80859 0-1.5586-0.33594-2.0938-0.86328-0.53516-0.53516-0.86328-1.2734-0.86328-2.0938v-53.918c0-0.82031 0.33594-1.5586 0.86328-2.0938 0.53516-0.53516 1.2734-0.86328 2.0938-0.86328h77.832c0.82031 0 1.5586 0.33594 2.0938 0.86328 0.53516 0.52734 0.86328 1.2734 0.86328 2.0938v5.707zm-2.2227 26.633h-1.707v3.4531h1.0938c0.22266 0 0.42188 0.050781 0.60938 0.13672v-3.5898zm7.0742-24.41h-35.18c-0.19922 0-0.39062 0.085938-0.52734 0.22266-0.13672 0.13672-0.22266 0.31641-0.22266 0.52734v20.715c0 0.19922 0.085937 0.39062 0.22266 0.52734 0.13672 0.13672 0.31641 0.22266 0.52734 0.22266h5.3359c0.60156 0 1.0859 0.47266 1.1055 1.0742l0.13672 4.0508 6.8516-4.875c0.19141-0.15625 0.44141-0.25391 0.70703-0.25391h21.031c0.19922 0 0.39063-0.085938 0.52734-0.22266 0.13672-0.13672 0.22266-0.31641 0.22266-0.52734v-20.715c0-0.19922-0.085937-0.39062-0.22266-0.52734-0.13672-0.13672-0.31641-0.22266-0.52734-0.22266zm-16.988 4.5703-3.3477 12.484c-0.15625 0.58984 0.19141 1.1992 0.78906 1.3594 0.58984 0.15625 1.1992-0.19141 1.3594-0.78906l3.3477-12.484c0.15625-0.58984-0.19141-1.1992-0.78906-1.3594-0.58984-0.15625-1.1992 0.19141-1.3594 0.78906zm-8.168 0.54688-5.3594 5.1914c-0.44141 0.42188-0.45312 1.125-0.019531 1.5703l5.3789 5.2109c0.44141 0.42188 1.1367 0.42188 1.5703-0.019532 0.42969-0.44141 0.42188-1.1367-0.019532-1.5703l-4.5352-4.3906 4.5352-4.3906c0.44141-0.42969 0.45313-1.125 0.019532-1.5703-0.42188-0.44141-1.125-0.45313-1.5703-0.019532zm13.578 1.5898 4.5352 4.3906-4.5352 4.3906c-0.44141 0.42969-0.45312 1.125-0.019531 1.5703 0.42188 0.44141 1.125 0.45312 1.5703 0.019531l5.3789-5.2109c0.42188-0.44141 0.42188-1.1367-0.019532-1.5703l-5.3594-5.1914c-0.44141-0.42188-1.1367-0.42188-1.5703 0.019531-0.42188 0.44141-0.42188 1.1367 0.019531 1.5703zm1.6836 28.684c2.3477 0 4.4727 0.94922 6.0195 2.4961s2.4961 3.6641 2.4961 6.0195c0 2.3594-0.94922 4.4727-2.4961 6.0195-1.5352 1.5352-3.6641 2.4961-6.0195 2.4961-2.3594 0-4.4727-0.94922-6.0195-2.4961-1.5352-1.5352-2.4961-3.6641-2.4961-6.0195 0-2.3594 0.94922-4.4727 2.4961-6.0195 1.5352-1.5352 3.6641-2.4961 6.0195-2.4961zm4.4414 4.0625c1.1367 1.1367 1.8438 2.707 1.8438 4.4414 0 1.7383-0.70703 3.3047-1.8438 4.4414-1.1367 1.1367-2.707 1.8438-4.4414 1.8438-1.7383 0-3.3047-0.70703-4.4414-1.8438-1.1367-1.1367-1.8438-2.707-1.8438-4.4414 0-1.7383 0.70703-3.3047 1.8438-4.4414 1.1367-1.1367 2.707-1.8438 4.4414-1.8438 1.7383 0 3.3047 0.70703 4.4414 1.8438zm-72.836-30.262v19.727l16.262 7v-19.727zm18.484 26.738 16.262-7v-19.727l-16.262 7zm18.484-28.422c0-0.42969-0.25391-0.84375-0.67188-1.0195l-18.484-7.957c-0.27344-0.11719-0.58984-0.125-0.875 0l-18.484 7.957c-0.25391 0.10547-0.46484 0.30469-0.57812 0.57812-0.0625 0.14844-0.09375 0.29297-0.09375 0.44141v22.148c0 0.47266 0.29297 0.88281 0.71484 1.043l17.77 7.6523v0.15625h0.35938l0.31641 0.13672c0.29297 0.125 0.60938 0.11719 0.875 0l0.31641-0.13672h0.35938v-0.15625l17.809-7.6719c0.42188-0.17969 0.67188-0.58984 0.67188-1.0195v-22.148zm-3.9141 0-15.684-6.7461-15.684 6.7461 15.684 6.7461zm7.7695 45.738-0.28516-4.3164h-17.957l-0.28516 4.3164zm5.2617 2.2227h-29.043c-0.68359 0-1.293 0.28516-1.7461 0.72656-0.45312 0.45313-0.72656 1.0742-0.72656 1.7461v2.4727h34v-2.4727c0-0.68359-0.28516-1.293-0.72656-1.7461-0.44141-0.45312-1.0625-0.72656-1.7461-0.72656z" fill-rule="evenodd"/>
<text x="0.0" y="117.5" font-size="5.0" font-weight="bold" font-family="Arbeit Regular, Helvetica, Arial-Unicode, Arial, Sans-serif" fill="#000000">Created by yieshazea2</text><text x="0.0" y="122.5" font-size="5.0" font-weight="bold" font-family="Arbeit Regular, Helvetica, Arial-Unicode, Arial, Sans-serif" fill="#000000">from Noun Project</text></svg>